<svg width="24" height="25" viewBox="0 0 24 25" fill="none" xmlns="http://www.w3.org/2000/svg">
<mask id="mask0_444_11019" style="mask-type:alpha" maskUnits="userSpaceOnUse" x="0" y="0" width="24" height="25">
<rect y="0.5" width="24" height="24" fill="#D9D9D9"/>
</mask>
<g mask="url(#mask0_444_11019)">
<path d="M12 14.5C11.1667 14.5 10.4583 14.2083 9.875 13.625C9.29167 13.0417 9 12.3333 9 11.5V5.5C9 4.66667 9.29167 3.95833 9.875 3.375C10.4583 2.79167 11.1667 2.5 12 2.5C12.8333 2.5 13.5417 2.79167 14.125 3.375C14.7083 3.95833 15 4.66667 15 5.5V11.5C15 12.3333 14.7083 13.0417 14.125 13.625C13.5417 14.2083 12.8333 14.5 12 14.5ZM11 21.5V18.425C9.26667 18.1917 7.83333 17.4167 6.7 16.1C5.56667 14.7833 5 13.25 5 11.5H7C7 12.8833 7.4875 14.0625 8.4625 15.0375C9.4375 16.0125 10.6167 16.5 12 16.5C13.3833 16.5 14.5625 16.0125 15.5375 15.0375C16.5125 14.0625 17 12.8833 17 11.5H19C19 13.25 18.4333 14.7833 17.3 16.1C16.1667 17.4167 14.7333 18.1917 13 18.425V21.5H11ZM12 12.5C12.2833 12.5 12.5208 12.4042 12.7125 12.2125C12.9042 12.0208 13 11.7833 13 11.5V5.5C13 5.21667 12.9042 4.97917 12.7125 4.7875C12.5208 4.59583 12.2833 4.5 12 4.5C11.7167 4.5 11.4792 4.59583 11.2875 4.7875C11.0958 4.97917 11 5.21667 11 5.5V11.5C11 11.7833 11.0958 12.0208 11.2875 12.2125C11.4792 12.4042 11.7167 12.5 12 12.5Z" fill="#1C1B1F"/>
</g>
</svg>
