<svg width="25" height="24" viewBox="0 0 25 24" fill="none" xmlns="http://www.w3.org/2000/svg">
<mask id="mask0_444_10915" style="mask-type:alpha" maskUnits="userSpaceOnUse" x="0" y="0" width="25" height="24">
<rect x="0.644531" width="24" height="24" fill="#D9D9D9"/>
</mask>
<g mask="url(#mask0_444_10915)">
<path d="M12.6445 14C11.8112 14 11.1029 13.7083 10.5195 13.125C9.9362 12.5417 9.64453 11.8333 9.64453 11V5C9.64453 4.16667 9.9362 3.45833 10.5195 2.875C11.1029 2.29167 11.8112 2 12.6445 2C13.4779 2 14.1862 2.29167 14.7695 2.875C15.3529 3.45833 15.6445 4.16667 15.6445 5V11C15.6445 11.8333 15.3529 12.5417 14.7695 13.125C14.1862 13.7083 13.4779 14 12.6445 14ZM11.6445 21V17.925C9.9112 17.6917 8.47786 16.9167 7.34453 15.6C6.2112 14.2833 5.64453 12.75 5.64453 11H7.64453C7.64453 12.3833 8.13203 13.5625 9.10703 14.5375C10.082 15.5125 11.2612 16 12.6445 16C14.0279 16 15.207 15.5125 16.182 14.5375C17.157 13.5625 17.6445 12.3833 17.6445 11H19.6445C19.6445 12.75 19.0779 14.2833 17.9445 15.6C16.8112 16.9167 15.3779 17.6917 13.6445 17.925V21H11.6445ZM12.6445 12C12.9279 12 13.1654 11.9042 13.357 11.7125C13.5487 11.5208 13.6445 11.2833 13.6445 11V5C13.6445 4.71667 13.5487 4.47917 13.357 4.2875C13.1654 4.09583 12.9279 4 12.6445 4C12.3612 4 12.1237 4.09583 11.932 4.2875C11.7404 4.47917 11.6445 4.71667 11.6445 5V11C11.6445 11.2833 11.7404 11.5208 11.932 11.7125C12.1237 11.9042 12.3612 12 12.6445 12Z" fill="#97A3B7"/>
</g>
</svg>
