<?xml version="1.0" encoding="UTF-8"?>
<svg version="1.1" xmlns="http://www.w3.org/2000/svg" width="48" height="48">
<path d="M0 0 C15.84 0 31.68 0 48 0 C48 15.84 48 31.68 48 48 C32.16 48 16.32 48 0 48 C0 32.16 0 16.32 0 0 Z " fill="#FAF9F9" transform="translate(0,0)"/>
<path d="M0 0 C5.39483409 2.28559765 9.0556161 6.18825362 11.734375 11.3671875 C12.109375 14.8671875 12.109375 14.8671875 11.734375 17.3671875 C8.6603488 17.72188283 5.79330951 17.89986403 2.734375 17.3671875 C0.234375 14.4296875 0.234375 14.4296875 -1.265625 11.3671875 C-2.91656622 9.71624628 -4.81048437 10.07851057 -7.078125 9.9921875 C-11.42515558 9.99354081 -11.42515558 9.99354081 -14.828125 12.7421875 C-15.66515401 14.27067525 -16.4862801 15.8084977 -17.265625 17.3671875 C-20.235625 17.3671875 -23.205625 17.3671875 -26.265625 17.3671875 C-26.60850037 13.76699614 -26.40368433 11.65531131 -24.828125 8.3671875 C-17.92429821 0.28465857 -10.4972431 -2.93198859 0 0 Z " fill="#2B2C2D" transform="translate(31.265625,5.6328125)"/>
<path d="M0 0 C3.37829392 -0.28522181 6.63244776 -0.45227643 10 0 C11.9375 2.375 11.9375 2.375 13 5 C16.51253146 7.34168764 17.86469356 7.49623677 22 7 C25.33761045 4.84909549 26.73470933 3.79587201 28 0 C31.3 0 34.6 0 38 0 C37.71058022 4.82366294 36.94375305 8.04940746 33.5703125 11.64453125 C28.42341711 16.08724941 23.22843434 17.69485873 16.45703125 17.3828125 C11.04086881 16.53895889 6.80350367 14.17434105 3.0625 10.1875 C0.77951773 6.65925468 0.24956343 4.15939046 0 0 Z " fill="#EB4542" transform="translate(5,26)"/>
</svg>
