<svg width="32" height="33" viewBox="0 0 32 33" fill="none" xmlns="http://www.w3.org/2000/svg">
<path d="M21.783 22.0145C20.2361 23.5673 18.341 24.3179 16.0006 24.3179C13.6603 24.3179 11.7651 23.5673 10.2182 22.0145C9.17364 20.966 8.52292 19.6653 8.17472 18.21H0.0976562C0.497228 22.0603 1.99277 25.2174 4.58428 27.7156C7.72377 30.718 11.514 32.2192 16.0006 32.2192C20.4872 32.2192 24.2261 30.718 27.3656 27.7156C30.0085 25.2117 31.504 22.0088 31.9036 18.21H23.8265C23.4783 19.6596 22.8276 20.9602 21.783 22.0145Z" fill="#EF5449"/>
<path d="M10.269 10.2562C11.8159 8.75505 13.711 7.95289 16 7.95289C18.289 7.95289 20.1898 8.70348 21.731 10.2562C23.1295 11.66 23.9229 13.4076 24.0257 15.4589H32C31.903 11.0068 30.356 7.2997 27.365 4.45201C24.2768 1.50119 20.538 0 16 0C11.462 0 7.67749 1.50119 4.58366 4.45201C1.64395 7.30543 0.0970389 10.9553 0 15.4589H7.97431C8.07135 13.4076 8.81912 11.6543 10.269 10.2562Z" fill="#292A2C"/>
</svg>
