<svg width="26" height="27" viewBox="0 0 26 27" fill="none" xmlns="http://www.w3.org/2000/svg">
<path opacity="0.3" d="M5.82812 14.2749H8.77056L11.0268 16.658L11.0268 9.69531L8.77056 12.0784H5.82812V14.2749Z" fill="#171A1F"/>
<path d="M3.75 9.88357L3.75 16.4729H7.90892L13.1076 21.9639L13.1076 4.3925L7.90892 9.88357H3.75ZM11.0281 9.69687L11.0281 16.6596L8.7719 14.2764L5.82946 14.2764L5.82946 12.08L8.7719 12.08L11.0281 9.69687ZM15.187 8.75241L15.187 17.593C16.7258 16.7913 17.7864 15.1221 17.7864 13.1782C17.7859 11.3013 16.7789 9.58661 15.187 8.75241ZM15.187 3.54688V5.8092C18.1919 6.75366 20.3857 9.69687 20.3857 13.1782C20.3857 16.6596 18.1919 19.6028 15.187 20.5472L15.187 22.8096C19.3564 21.8102 22.4652 17.8786 22.4652 13.1782C22.4652 8.47786 19.3564 4.54625 15.187 3.54688Z" fill="#171A1F"/>
</svg>
